<svg width="209" height="53" viewBox="0 0 209 53" fill="none" xmlns="http://www.w3.org/2000/svg">
<path d="M12.2128 14.4427L5 17.338C5.55483 13.4542 8.22755 9.57036 9.43862 8.27576C14.802 2.54253 20.3502 1.97699 21.8298 1.86657C34.2209 0.941858 39.7692 10.3739 39.5843 10.3739C39.9542 13.333 35.1457 14.4427 35.1457 14.0728C30.707 9.57036 27.7479 8.30415 25.7136 7.78474C18.7597 6.00929 13.8156 11.4836 12.2128 14.4427Z" stroke="black" stroke-width="3"/>
<path d="M22.888 33.0581H37.7349C32.9263 38.9762 27.3781 39.8365 22.888 39.8365C10.7332 38.7913 6.3329 29.461 5 24.5507L12.2128 26.955C14.4321 30.2839 17.5761 33.0581 22.888 33.0581Z" stroke="black" stroke-width="3"/>
<path d="M13.1374 18.0778L5.36981 21.0368L13.1374 23.626C21.7681 23.5644 36.8101 24.2537 39.3993 23.626C45.5024 22.1465 42.1734 15.3036 41.8035 14.3789C40.139 16.9681 36.4402 17.7079 35.5155 17.7079L13.1374 18.0778Z" stroke="#3A7EFF" stroke-width="3"/>
<path d="M48.6465 22.5164C48.6465 21.6992 49.309 21.0368 50.1261 21.0368H59.7431C60.5602 21.0368 61.2226 21.6992 61.2226 22.5164C61.2226 23.3335 60.5602 23.9959 59.7431 23.9959H50.1261C49.309 23.9959 48.6465 23.3335 48.6465 22.5164Z" fill="black"/>
<path d="M170.709 28.2495C145.409 17.1529 140.933 22.3313 141.488 29.5441C141.488 29.85 141.825 30.0435 142.19 29.9695C142.945 29.8163 142.918 28.7719 142.995 28.0054C144.042 17.5587 167.105 28.5322 168.674 29.1742C178.291 33.1085 187.279 36.3045 191.237 36.7568C197.71 37.4966 205.478 37.4966 206.957 32.873C208.249 28.8363 208.695 28.7469 206.941 30.8816C206.354 31.5967 205.921 32.445 205.291 33.1222C202.552 36.0625 193.09 38.0659 170.709 28.2495Z" fill="black"/>
<path d="M82.8684 30.6034C82.8684 29.2778 82.5507 28.1454 81.9155 27.2064C81.3079 26.2674 80.507 25.5355 79.5128 25.0108C78.5461 24.486 77.469 24.0165 76.2814 23.6023C75.0939 23.188 73.9063 22.7737 72.7187 22.3594C71.5311 21.9175 70.4402 21.4066 69.446 20.8266C68.4793 20.219 67.6784 19.3905 67.0432 18.341C66.4356 17.2915 66.1318 16.0211 66.1318 14.5297C66.1318 11.9612 67.0708 9.9451 68.9488 8.48134C70.8545 7.01758 73.2849 6.28571 76.24 6.28571C79.2228 6.28571 81.5979 6.96235 83.3655 8.31563C85.133 9.66892 86.0168 11.1465 86.0168 12.7483C86.0168 13.8531 85.7959 14.6816 85.354 15.234C84.9397 15.7587 84.4426 16.0211 83.8626 16.0211C82.7855 16.0211 82.095 15.8139 81.7912 15.3997L81.667 15.1925C81.9431 14.8335 82.0812 14.1431 82.0812 13.1212C82.0812 11.547 81.4184 10.3179 80.0927 9.43417C78.7671 8.52277 77.2205 8.06707 75.4529 8.06707C73.713 8.06707 72.332 8.53658 71.3102 9.47559C70.2883 10.4146 69.7774 11.5608 69.7774 12.914C69.7774 14.2673 70.0812 15.3997 70.6888 16.3111C71.324 17.1949 72.1387 17.8853 73.133 18.3824C74.1272 18.8796 75.2181 19.3214 76.4057 19.7081C77.6209 20.0948 78.8223 20.5228 80.0099 20.9923C81.2251 21.4342 82.3298 21.9866 83.3241 22.6494C84.3183 23.2846 85.1192 24.196 85.7268 25.3836C86.362 26.5712 86.6797 28.0073 86.6797 29.692C86.6797 32.6472 85.6302 34.9119 83.5312 36.4861C81.4322 38.0603 78.7947 38.8474 75.6186 38.8474C72.4701 38.8474 69.7221 38.0465 67.3746 36.4447C65.0547 34.8152 63.8947 32.7853 63.8947 30.3549C63.8947 29.2225 64.1157 28.3388 64.5575 27.7035C64.9994 27.0407 65.5242 26.7093 66.1318 26.7093C67.2089 26.7093 67.8993 26.8888 68.2031 27.2478L68.3274 27.455C68.0789 28.1454 67.9546 28.9878 67.9546 29.982C67.9546 31.8601 68.7141 33.5033 70.2331 34.9119C71.7797 36.3204 73.7958 37.0247 76.2814 37.0247C78.0766 37.0247 79.6232 36.4032 80.9213 35.1604C82.2193 33.89 82.8684 32.371 82.8684 30.6034Z" fill="black"/>
<path d="M88.6588 14.1569C88.1893 13.6874 87.9545 13.1074 87.9545 12.4169C87.9545 11.7265 88.1893 11.1465 88.6588 10.677C89.1283 10.1799 89.7083 9.93129 90.3987 9.93129C91.0892 9.93129 91.6691 10.1799 92.1387 10.677C92.6358 11.1465 92.8843 11.7265 92.8843 12.4169C92.8843 13.1074 92.6358 13.6874 92.1387 14.1569C91.6691 14.6264 91.0892 14.8611 90.3987 14.8611C89.7083 14.8611 89.1283 14.6264 88.6588 14.1569ZM88.4931 20.7438C88.4931 19.9152 88.7002 19.2938 89.1145 18.8796C89.5287 18.4377 90.0535 18.2167 90.6887 18.2167C91.3239 18.2167 91.8349 18.4101 92.2215 18.7967V30.6863C92.2215 32.2605 92.5253 33.4481 93.1329 34.249C93.7405 35.05 94.569 35.4504 95.6185 35.4504C96.668 35.4504 97.6485 34.8152 98.5599 33.5448C99.4713 32.2743 99.927 30.2168 99.927 27.3721C99.9822 27.2064 100.189 27.1236 100.548 27.1236C101.045 27.1236 101.294 27.8554 101.294 29.3192C101.294 31.4458 100.714 33.2686 99.5541 34.7876C98.3942 36.3066 96.9166 37.0661 95.1214 37.0661C92.8843 37.0661 91.2134 36.4032 90.1087 35.0776C89.0316 33.7519 88.4931 31.8739 88.4931 29.4435V20.7438Z" fill="black"/>
<path d="M112.365 19.4181C112.725 18.6172 113.291 18.2167 114.064 18.2167C114.865 18.2167 115.459 18.4101 115.845 18.7967V39.8417C116.177 39.8141 116.702 39.8003 117.42 39.8003C118.138 39.8003 118.497 40.1041 118.497 40.7117L118.248 41.3331C117.199 41.3331 116.398 41.3469 115.845 41.3745V43.5287C115.818 46.3734 115.155 48.5966 113.857 50.1985C112.586 51.828 110.888 52.6427 108.761 52.6427C107.491 52.6427 106.359 52.256 105.364 51.4827C104.398 50.737 103.914 49.5495 103.914 47.92C103.914 45.821 104.66 44.1501 106.151 42.9073C107.643 41.6645 109.631 40.7945 112.117 40.2974V34.2076C110.957 36.1133 109.355 37.0661 107.311 37.0661C102.478 37.0661 100.062 33.9038 100.062 27.5793C100.062 24.3756 100.807 22.0142 102.299 20.4952C103.818 18.9762 105.82 18.2167 108.306 18.2167C110.211 18.2167 111.565 18.6172 112.365 19.4181ZM112.117 28.2835V25.3422C112.117 23.3813 111.785 21.9728 111.123 21.1166C110.46 20.2605 109.687 19.8324 108.803 19.8324C107.947 19.8324 107.27 19.9152 106.773 20.0809C106.276 20.2467 105.792 20.5919 105.323 21.1166C104.439 22.1109 103.997 24.2651 103.997 27.5793C103.997 29.7611 104.191 31.4596 104.577 32.6748C104.964 33.89 105.406 34.6633 105.903 34.9947C106.4 35.2985 107.09 35.4504 107.974 35.4504C108.886 35.4504 109.797 34.8842 110.708 33.7519C111.647 32.5919 112.117 30.7692 112.117 28.2835ZM112.117 43.4459V41.8716C108.057 42.783 106.027 44.8406 106.027 48.0443C106.027 49.0109 106.289 49.7428 106.814 50.2399C107.339 50.7647 107.96 51.027 108.678 51.027C109.838 51.027 110.695 50.4885 111.247 49.4114C111.827 48.3343 112.117 46.3458 112.117 43.4459Z" fill="black"/>
<path d="M142.175 27.1236C142.672 27.1236 142.921 27.8554 142.921 29.3192C142.921 31.6667 142.41 33.5448 141.388 34.9533C140.394 36.3618 138.93 37.0661 136.996 37.0661C135.063 37.0661 133.572 36.4032 132.522 35.0776C131.5 33.7519 130.99 31.8739 130.99 29.4435V24.5965C130.99 21.31 130.161 19.6667 128.504 19.6667C127.04 19.6667 125.839 20.4124 124.9 21.9037C123.961 23.3951 123.491 25.8946 123.491 29.4021V36.4861C123.215 36.8728 122.732 37.0661 122.041 37.0661C121.351 37.0661 120.798 36.8589 120.384 36.4447C119.97 36.0028 119.763 35.3676 119.763 34.539V18.7967C120.039 18.4101 120.564 18.2167 121.337 18.2167C122.773 18.2167 123.491 19.2524 123.491 21.3238C124.651 19.2524 126.488 18.2167 129.001 18.2167C130.796 18.2167 132.219 18.7829 133.268 19.9152C134.345 21.0476 134.884 22.677 134.884 24.8036V30.6863C134.884 32.2605 135.132 33.4481 135.629 34.249C136.127 35.05 136.858 35.4504 137.825 35.4504C138.819 35.4504 139.689 34.8428 140.435 33.6276C141.181 32.3848 141.553 30.2996 141.553 27.3721C141.581 27.2064 141.788 27.1236 142.175 27.1236Z" fill="black"/>
</svg>
